<?xml version="1.0" encoding="UTF-8" standalone="no"?>
<!-- Creator: CorelDRAW X7 -->

<svg
   xmlns:dc="http://purl.org/dc/elements/1.1/"
   xmlns:cc="http://creativecommons.org/ns#"
   xmlns:rdf="http://www.w3.org/1999/02/22-rdf-syntax-ns#"
   xmlns:svg="http://www.w3.org/2000/svg"
   xmlns="http://www.w3.org/2000/svg"
   xmlns:sodipodi="http://sodipodi.sourceforge.net/DTD/sodipodi-0.dtd"
   xmlns:inkscape="http://www.inkscape.org/namespaces/inkscape"
   xml:space="preserve"
   width="100.08319"
   height="101.40945"
   version="1.1"
   style="fill-rule:evenodd"
   viewBox="0 0 2824.5701 2862"
   id="svg3030"
   inkscape:version="0.48.5 r10040"
   sodipodi:docname="filtro_ed.svg"><metadata
   id="metadata3042"><rdf:RDF><cc:Work
       rdf:about=""><dc:format>image/svg+xml</dc:format><dc:type
         rdf:resource="http://purl.org/dc/dcmitype/StillImage" /></cc:Work></rdf:RDF></metadata><sodipodi:namedview
   pagecolor="#ffffff"
   bordercolor="#666666"
   borderopacity="1"
   objecttolerance="10"
   gridtolerance="10"
   guidetolerance="10"
   inkscape:pageopacity="0"
   inkscape:pageshadow="2"
   inkscape:window-width="1920"
   inkscape:window-height="1018"
   id="namedview3040"
   showgrid="false"
   fit-margin-top="0"
   fit-margin-left="0"
   fit-margin-right="0"
   fit-margin-bottom="0"
   inkscape:zoom="4.4669468"
   inkscape:cx="53.552155"
   inkscape:cy="28.010943"
   inkscape:window-x="-8"
   inkscape:window-y="-8"
   inkscape:window-maximized="1"
   inkscape:current-layer="svg3030" />
 <defs
   id="defs3032">
  <style
   type="text/css"
   id="style3034">
   
    .fil0 {fill:black}
   
  </style>
 
  
  
 </defs>
 <path
   style="fill:param(fill) #ffffff;fill-opacity:1;stroke:param(outline) #000000;stroke-width:param(stroke-width) 1.01988637;stroke-miterlimit:4;stroke-opacity:1;stroke-dasharray:none"
   inkscape:connector-curvature="0"
   id="path3038"
   d="m 1172.884,2862 70,0 262,-299 c 176,-205 200,-179 200,-370 0,-186 0,-373 0,-559 0,-45 0,-90 0,-136 -1,-137 63,-154 162,-267 167,-192 380,-403 540,-586 l 399,-438 c 18,-26 25,-90 12,-128 -14,-40 -51,-41 -70,-79 l -2662,0 c -16,35 -44,21 -69,67 -61,112 59,195 111,254 86,98 165,170 241,267 48,60 190,199 250,266 l 368,403 c 155,161 137,133 137,369 l 0,1024 c 0,256 10,126 49,212 z"
   class="fil0" />
</svg>